<svg xmlns="http://www.w3.org/2000/svg" width="1436" height="100" viewBox="286.73 0 1436 100"><title>CMGwht</title><linearGradient id="a" gradientUnits="userSpaceOnUse" x1="-1880.387" y1="-438.595" x2="-1757.279" y2="-529.698" gradientTransform="matrix(.5258 0 0 -.5258 1291.424 -202.66)"><stop offset="0" stop-color="#dd356f"/><stop offset=".226" stop-color="#c45088"/><stop offset=".71" stop-color="#8495c6"/><stop offset="1" stop-color="#5bc1ee"/></linearGradient><path fill="url(#a)" d="M350.919 72.55c-2.228 1.04-4.456 1.634-6.684 1.931-14.259 2.376-27.775-7.278-30.151-21.537-1.634-10.1 2.673-19.754 10.397-25.547 3.268-2.376 7.129-4.01 11.14-4.753 4.753-.891 8.169-5.496 7.278-10.248-.743-4.901-5.347-8.318-10.397-7.575-7.129 1.188-13.516 4.01-19.012 8.021-.149.149-.446.297-.594.446-.149.149-.446.297-.594.446-15.892 12.476-21.685 34.607-12.773 53.619 4.901 10.397 13.665 18.566 24.21 22.576 10.843 4.159 22.428 3.713 32.973-.594 5.05-1.931 8.021-7.278 5.496-12.476-1.783-4.012-6.833-6.092-11.289-4.309z"/><circle fill="#5BC1EE" cx="370.97" cy="64.826" r="8.021"/><circle fill="#5BC1EE" cx="374.683" cy="44.627" r="6.238"/><path fill="#FFF" d="M478.802 70.025c-.743-.743-2.079-.891-3.119 0-5.198 4.159-11.437 6.981-18.715 6.981-15.744 0-27.478-12.922-27.478-28.369s11.585-28.517 27.329-28.517c6.832 0 13.665 2.674 18.863 7.278 1.04 1.04 2.228 1.04 3.119 0l7.426-7.723c1.04-1.04 1.04-2.376-.149-3.416-8.318-7.426-17.229-11.437-29.706-11.437-24.507 0-44.261 19.754-44.261 44.261s19.754 43.964 44.261 43.964c10.843 0 21.388-3.862 29.854-11.882.891-.891 1.04-2.376.149-3.268l-7.573-7.872zm87.631-37.578c0-14.556-12.031-26.289-26.735-26.289h-35.053a2.346 2.346 0 0 0-2.376 2.376V89.63c0 1.188 1.04 2.376 2.376 2.376h11.288c1.188 0 2.376-1.04 2.376-2.376V58.44h13.665l16.338 32.528c.297.446.891 1.04 1.931 1.04h12.922c2.079 0 2.971-1.931 2.079-3.565L548.46 57.252c10.398-4.456 17.973-13.517 17.973-24.805zm-28.072 12.625h-19.903V20.714h19.903c6.535 0 12.179 5.347 12.179 11.882-.148 6.832-5.792 12.476-12.179 12.476zM688.375 6.158c-.297-.743-.891-1.337-2.079-1.337h-1.188c-1.04 0-1.782.594-2.079 1.337l-38.172 82.433c-.743 1.634.297 3.119 2.079 3.119h10.694c1.931 0 3.119-1.188 3.565-2.376l5.941-13.219h36.686l5.941 13.219c.891 1.782 1.782 2.376 3.565 2.376h10.694c1.782 0 2.822-1.634 2.079-3.119L688.375 6.158zm-15.299 56.44l12.031-27.032h.297l12.328 27.032h-24.656zM778.977 6.009h-53.619a2.346 2.346 0 0 0-2.376 2.376v10.1c0 1.188 1.04 2.376 2.376 2.376h18.715v68.768c0 1.188 1.04 2.376 2.376 2.376h11.437c1.188 0 2.376-1.04 2.376-2.376V20.714h18.715a2.346 2.346 0 0 0 2.376-2.376v-10.1c0-1.04-1.04-2.229-2.376-2.229zm189.967.594c-.148-1.04-.891-1.782-2.228-1.782h-1.931c-1.04 0-1.782.446-2.079 1.188l-27.032 57.777h-.297L908.493 6.009c-.297-.743-1.04-1.188-2.079-1.188h-1.931c-1.337 0-2.079.891-2.228 1.782l-14.556 82.285c-.297 1.782.743 2.822 2.376 2.822h10.991c1.04 0 2.079-1.04 2.228-1.782l7.129-46.489h.297l21.685 48.123c.297.743 1.04 1.337 2.079 1.337h2.228c1.04 0 1.782-.594 2.079-1.337l21.388-48.123h.297l7.278 46.489c.297.891 1.188 1.782 2.376 1.782h11.14c1.634 0 2.525-1.04 2.228-2.822L968.944 6.603zm95.949-.594h-11.585a2.346 2.346 0 0 0-2.376 2.376v50.202c0 10.248-7.278 18.566-17.823 18.566-10.694 0-17.823-8.169-17.823-18.566V8.386c0-1.188-1.04-2.376-2.376-2.376h-11.585c-1.188 0-2.376 1.04-2.376 2.376v50.945c0 18.566 14.853 33.716 34.013 33.716 19.309 0 34.161-15.001 34.161-33.716V8.386c.147-1.188-.893-2.377-2.23-2.377zm48.569 35.053c-9.951-4.01-14.407-8.021-14.407-13.665 0-3.862 3.862-8.615 10.843-8.615 6.684 0 16.041 6.09 17.081 6.684 1.485 1.04 3.268 0 4.307-1.485L1135.89 17c.891-1.188.446-3.268-.743-4.01-2.525-1.782-12.031-8.169-24.507-8.169-19.457 0-27.626 12.625-27.626 23.467 0 14.407 11.585 21.834 23.022 26.438 10.249 4.159 15.595 8.466 15.595 14.704 0 5.198-4.753 9.506-11.14 9.506-8.021 0-17.823-7.278-18.566-7.575-1.04-.891-3.119-.891-4.159.891l-4.456 7.575c-1.04 1.931-.446 2.525.594 3.713 2.525 2.376 11.585 9.506 27.032 9.506 17.229 0 28.22-11.585 28.22-24.21-.147-15.892-13.812-23.021-25.694-27.774zm139.913 28.963c-.743-.743-2.079-.891-3.119 0-5.198 4.159-11.437 6.981-18.714 6.981-15.744 0-27.478-12.922-27.478-28.369s11.585-28.517 27.329-28.517c6.832 0 13.665 2.674 18.863 7.278 1.04 1.04 2.228 1.04 3.119 0l7.426-7.723c1.04-1.04 1.04-2.376-.148-3.416-8.318-7.426-17.229-11.437-29.706-11.437-24.507 0-44.261 19.754-44.261 44.261s19.754 43.964 44.261 43.964c10.843 0 21.388-3.862 29.854-11.882.891-.891 1.04-2.376.149-3.268l-7.575-7.872zm117.634-20.794h-23.467a2.346 2.346 0 0 0-2.376 2.376v9.654c0 1.188 1.04 2.228 2.376 2.228h9.803v10.397c-2.525 1.04-7.724 3.119-14.556 3.119-15.447 0-27.626-12.922-27.626-28.072 0-15.298 12.179-28.369 27.478-28.369 6.684 0 13.219 2.376 18.566 7.129 1.04 1.04 2.228 1.04 3.119 0l7.575-8.021c1.04-1.04.891-2.376-.148-3.416-8.318-7.129-18.863-11.437-29.854-11.437-24.359 0-43.964 19.754-43.964 44.261s19.606 43.816 43.964 43.816c17.823 0 30.448-8.021 30.448-8.021.446-.297 1.04-1.04 1.04-1.931V51.607c-.15-1.188-1.041-2.376-2.378-2.376zm84.364-16.784c0-14.556-12.031-26.289-26.735-26.289h-35.052a2.346 2.346 0 0 0-2.376 2.376V89.63c0 1.188 1.04 2.376 2.376 2.376h11.288c1.188 0 2.376-1.04 2.376-2.376V58.44h13.665l16.338 32.528c.297.446.891 1.04 1.931 1.04h12.922c2.079 0 2.971-1.931 2.079-3.565l-16.784-31.191c10.546-4.456 17.972-13.517 17.972-24.805zm-28.072 12.625h-19.903V20.714h19.903c6.535 0 12.179 5.347 12.179 11.882.001 6.832-5.643 12.476-12.179 12.476zm83.473-40.251c-24.507 0-43.964 19.754-43.964 44.261s19.457 43.964 43.964 43.964c24.507 0 44.113-19.457 44.113-43.964s-19.606-44.261-44.113-44.261zm0 72.333c-15.447 0-28.072-12.625-28.072-28.072s12.625-28.369 28.072-28.369 28.22 12.922 28.22 28.369-12.773 28.072-28.22 28.072zm124.912-71.145h-11.585a2.346 2.346 0 0 0-2.376 2.376v50.202c0 10.248-7.278 18.566-17.823 18.566-10.694 0-17.823-8.169-17.823-18.566V8.386c0-1.188-1.04-2.376-2.376-2.376h-11.585c-1.188 0-2.376 1.04-2.376 2.376v50.945c0 18.566 14.853 33.716 34.013 33.716 19.309 0 34.161-15.001 34.161-33.716V8.386c.147-1.188-1.042-2.377-2.23-2.377zm54.51 0h-28.814a2.346 2.346 0 0 0-2.376 2.376v81.096c0 1.188 1.04 2.376 2.376 2.376h11.288c1.188 0 2.376-1.04 2.376-2.376V60.668h15.298c15.001 0 27.329-12.328 27.329-27.626.001-14.705-12.327-27.033-27.477-27.033zm-.891 39.806h-14.259V21.159h14.259c6.832 0 12.625 5.198 12.625 11.882 0 7.13-5.793 12.774-12.625 12.774zM632.38 19.971c0 .149-.149.149-.149.297 0-.149 0-.297.149-.297z"/><path fill="#FFF" d="M632.231 20.119zm.297-.297s0 .149-.148.149c0-.149 0-.149.148-.149z" opacity=".5"/><path fill="#FFF" d="M636.687 77.154h-36.835V55.766h24.804c.594 0 1.04-.297 1.485-.594 0 0 .149-.149.149-.297 0 0 0-.149.149-.149.297-.446.446-.891.743-1.337 1.485-2.822 3.268-6.535 4.901-9.506.148-.297.148-.594.148-.891 0-1.04-.743-1.782-1.634-2.079h-30.893v-20.2h31.042c.594 0 1.04-.297 1.485-.594 0 0 .149-.149.149-.297 0 0 0-.149.148-.149.297-.446.446-.891.743-1.337 1.485-2.822 3.268-6.535 4.901-9.506.148-.297.148-.594.148-.891 0-1.04-.743-1.782-1.634-1.931h-50.499a2.346 2.346 0 0 0-2.376 2.376V89.48c0 1.188 1.04 2.376 2.376 2.376h44.41c.594 0 1.04-.297 1.485-.594 0 0 .148-.149.148-.297 0 0 0-.149.149-.149.297-.446.446-.891.743-1.337 1.485-2.822 3.268-6.535 4.901-9.506.149-.297.149-.594.149-.891.149-.888-.594-1.779-1.485-1.928zm210.167 0h-36.835V55.766h24.804c.594 0 1.04-.297 1.485-.594 0 0 .149-.149.149-.297 0 0 0-.149.149-.149.297-.446.446-.891.743-1.337 1.485-2.822 3.268-6.535 4.901-9.506.148-.297.148-.594.148-.891 0-1.04-.743-1.782-1.634-2.079h-30.746v-20.2h30.894c.594 0 1.04-.297 1.485-.594 0 0 .149-.149.149-.297 0 0 0-.149.149-.149.297-.446.446-.891.743-1.337 1.485-2.822 3.268-6.535 4.901-9.506.148-.297.148-.594.148-.891 0-1.04-.743-1.782-1.634-1.931h-50.499a2.346 2.346 0 0 0-2.376 2.376V89.48c0 1.188 1.04 2.376 2.376 2.376h44.41c.594 0 1.04-.297 1.485-.594 0 0 .148-.149.148-.297 0 0 0-.149.149-.149.297-.446.446-.891.743-1.337 1.485-2.822 3.268-6.535 4.901-9.506.149-.297.149-.594.149-.891.149-.888-.594-1.779-1.485-1.928zm323.939-68.768v-.891c-.148-.891-1.04-1.634-2.228-1.634-.297 0-.594 0-.891.149 0 0-7.278 3.416-10.397 4.901-.446.297-1.04.446-1.485.743 0 0-.148 0-.148.149-.148 0-.148.149-.297.149-.446.446-.594.891-.594 1.485v76.046c0 1.188 1.04 2.376 2.376 2.376h11.437c1.188 0 2.376-1.04 2.376-2.376l-.149-81.097z"/></svg>