<svg xmlns="http://www.w3.org/2000/svg" width="2000.46" height="100" viewBox="0 0 2000.46 100"><title>CMGwht</title><path d="M419.091 77.595a8.227 8.227 0 0 1 8.734 1.772l2.532 2.532a8.227 8.227 0 0 1 2.278 7.089 7.72 7.72 0 0 1-4.43 5.949l-3.544 1.646a46.835 46.835 0 0 1-36.329-.253 50.255 50.255 0 0 1-16.076-10.886l-.253-.253a51.14 51.14 0 0 1-10.886-15.949 50.361 50.361 0 0 1-3.797-18.101 47.461 47.461 0 0 1 3.544-18.481 49.62 49.62 0 0 1 11.392-16.835 55.978 55.978 0 0 1 9.367-7.722 53.699 53.699 0 0 1 9.114-4.937 40.897 40.897 0 0 1 9.114-2.532h.253a8.1 8.1 0 0 1 6.329 1.646c1.772 1.392 3.291 5.823 3.418 10a8.228 8.228 0 0 1-6.582 8.608c-2.159.339-4.279.89-6.329 1.646a30.242 30.242 0 0 0-11.139 7.089 28.102 28.102 0 0 0-6.203 9.367 25.328 25.328 0 0 0-1.646 10.633 28.617 28.617 0 0 0 2.658 10.633 33.695 33.695 0 0 0 6.582 9.494l.253.25a34.174 34.174 0 0 0 9.494 6.709 27.48 27.48 0 0 0 10.633 2.658 25.815 25.815 0 0 0 10.633-1.519l.886-.253z"/><circle cx="447.084" cy="50.619" r="6.709"/><circle cx="439.872" cy="70.728" r="8.734"/><path d="M496.812 48.481a40.624 40.624 0 0 1 3.291-16.076 41.647 41.647 0 0 1 38.228-25.19 40.635 40.635 0 0 1 15.19 2.658 44.16 44.16 0 0 1 12.658 7.975c.47.42.745 1.016.76 1.646a2.662 2.662 0 0 1-.633 1.646l-7.089 7.215a1.644 1.644 0 0 1-1.392.633 2.154 2.154 0 0 1-1.519-.759 27.847 27.847 0 0 0-8.481-5.19 25.95 25.95 0 0 0-23.038 1.772 26.71 26.71 0 0 0-12.658 23.291 26.702 26.702 0 0 0 3.418 13.291 26.204 26.204 0 0 0 22.911 13.418 27.977 27.977 0 0 0 17.975-6.582c.434-.337.97-.516 1.519-.506.508.009.998.187 1.392.506l7.215 7.468c.385.364.612.863.633 1.392a2.405 2.405 0 0 1-.633 1.646 38.734 38.734 0 0 1-27.975 11.013 39.893 39.893 0 0 1-11.013-1.519 50.172 50.172 0 0 1-10-4.051 41.523 41.523 0 0 1-14.81-14.81 42.907 42.907 0 0 1-4.177-9.873 29.65 29.65 0 0 1-1.772-11.014zm79.494 38.101V10.38c0-1.188.963-2.152 2.152-2.152h32.911a24.304 24.304 0 0 1 17.721 7.215 23.416 23.416 0 0 1 7.342 17.468 22.66 22.66 0 0 1-4.684 14.051 28.863 28.863 0 0 1-12.405 9.367l15.823 29.114a2.154 2.154 0 0 1 0 2.152 2.024 2.024 0 0 1-2.025 1.139h-12.152a2.026 2.026 0 0 1-1.899-1.013l-15.316-30.38h-12.785v29.114a2.66 2.66 0 0 1-.633 1.519 2.03 2.03 0 0 1-1.519.633h-10.253a2.15 2.15 0 0 1-1.519-.633 1.392 1.392 0 0 1-.759-1.392zm15.19-41.645h18.734a10.888 10.888 0 0 0 7.975-3.418 11.27 11.27 0 0 0 3.418-8.228 10.505 10.505 0 0 0-3.418-7.848 11.262 11.262 0 0 0-7.975-3.291h-18.734v22.785zm56.582 41.645V10.38c0-1.188.963-2.152 2.152-2.152h45.57c.377-.031.749.108 1.013.38.38.506.38.506.127 1.392l-3.291 9.747a6.847 6.847 0 0 1-.759 1.646c-.253.506-.633.633-1.266.633h-28.608v18.987h26.709c.506.506 0 1.013-.253 2.025l-2.785 9.494c-.506 1.266-.506 1.392-.886 1.772s-.506.38-1.139.38H662.89V74.81h32.152c.633 0 .506 0 .886.253s0 1.139-.38 1.899l-3.544 9.367-.886 1.772c-.38.506-.38.506-1.013.506H650.23a2.15 2.15 0 0 1-1.519-.633 1.643 1.643 0 0 1-.633-1.392zm52.279-.886L736.18 8.354a1.9 1.9 0 0 1 2.025-1.266h1.139a2.151 2.151 0 0 1 2.025 1.266l35.443 77.342c.142.32.228.663.253 1.013a2.02 2.02 0 0 1-.38 1.139 2.026 2.026 0 0 1-1.899.886H764.66a3.164 3.164 0 0 1-2.025-.506 7.202 7.202 0 0 1-1.392-1.772l-5.57-12.658h-34.304l-5.696 12.658a3.418 3.418 0 0 1-3.291 2.405h-10a2.027 2.027 0 0 1-1.899-.886 2.03 2.03 0 0 1-.38-1.139c.127-.38.127-.76.254-1.14zm26.582-24.43h23.165L738.585 35.95h-.38l-11.266 25.316zm46.329-41.393V10.38c0-1.188.963-2.152 2.152-2.152h50.253c1.188 0 2.152.963 2.152 2.152v9.494a2.152 2.152 0 0 1-2.152 2.152h-17.721v64.557a2.66 2.66 0 0 1-.633 1.519 1.898 1.898 0 0 1-1.519.633h-10.633a2.663 2.663 0 0 1-1.519-.633 1.898 1.898 0 0 1-.633-1.519V22.025H775.42a2.15 2.15 0 0 1-1.519-.633 1.645 1.645 0 0 1-.633-1.519zm61.772 66.709V10.506c0-1.188.963-2.152 2.152-2.152h40c.38.38-.38 1.266-.76 2.152L871.876 20a4.163 4.163 0 0 1-.76 1.519c-.38.506-1.519.633-2.152.633h-18.987v18.987h28.354c.506 0 1.013-.127 1.392.38s-.253 1.266-.253 1.772l-3.924 9.873c-.506 1.013-.506 1.013-1.013 1.392a3.418 3.418 0 0 1-1.899.38h-22.658v20.127h34.051a2.15 2.15 0 0 1 1.519.633c.325.435.462.982.38 1.519l-2.532 9.367a2.53 2.53 0 0 1-.886 1.519 2.15 2.15 0 0 1-1.519.633h-43.924a2.15 2.15 0 0 1-1.519-.633 2.665 2.665 0 0 1-.506-1.519zm77.975-.506l13.671-77.215a1.9 1.9 0 0 1 2.025-1.772h1.899a2.027 2.027 0 0 1 1.899 1.139l25.316 54.304h.38l25.316-54.304a2.024 2.024 0 0 1 1.899-1.139h1.899a1.772 1.772 0 0 1 2.025 1.772l13.544 77.215v.633a1.899 1.899 0 0 1-2.152 2.026H990.23a2.154 2.154 0 0 1-1.392-.506 3.047 3.047 0 0 1-.76-1.139l-6.835-43.544h-.127l-20.127 45.19c-.253.884-.886 1.264-2.025 1.264h-2.025a1.9 1.9 0 0 1-1.899-1.266l-20.38-45.19h-.38l-6.709 43.544a3.028 3.028 0 0 1-.76 1.139c-.376.35-.879.533-1.392.506h-10.38a2.786 2.786 0 0 1-1.772-.633 2.026 2.026 0 0 1-.506-1.519c.254-.125.254-.252.254-.505zm99.62-27.848V10.38a2.66 2.66 0 0 1 .633-1.519 2.03 2.03 0 0 1 1.519-.633h10.886c1.188 0 2.152.963 2.152 2.152v47.089a17.214 17.214 0 0 0 4.684 12.405 15.823 15.823 0 0 0 12.025 4.937 16.075 16.075 0 0 0 12.152-4.937 17.214 17.214 0 0 0 4.683-12.405V10.38c0-1.188.964-2.152 2.152-2.152h10.886a2.66 2.66 0 0 1 1.519.633c.416.394.646.946.633 1.519v47.848a31.253 31.253 0 0 1-2.405 12.278 32.92 32.92 0 0 1-6.709 10.127 30.63 30.63 0 0 1-10.253 6.709 33.17 33.17 0 0 1-12.658 2.532 32.154 32.154 0 0 1-16.203-4.177 30.51 30.51 0 0 1-11.519-11.519 31.272 31.272 0 0 1-4.177-15.95zm73.797 20.886v-.253a4.186 4.186 0 0 1 .506-1.772l4.177-7.215a2.28 2.28 0 0 1 1.899-1.266 2.15 2.15 0 0 1 2.025.506l.506.38 1.392.886 1.899 1.139 2.279 1.266 2.658 1.266 2.911 1.139 2.911.759c.956.205 1.934.29 2.911.253 2.708.05 5.349-.845 7.468-2.532a7.974 7.974 0 0 0 3.038-6.329 9.745 9.745 0 0 0-3.544-7.468 38.986 38.986 0 0 0-11.013-6.203 58.556 58.556 0 0 1-7.975-3.924 40.625 40.625 0 0 1-6.709-5.063 22.888 22.888 0 0 1-5.063-6.962 20.764 20.764 0 0 1-1.772-8.987 20.38 20.38 0 0 1 1.519-7.595 23.037 23.037 0 0 1 4.557-6.835 20.628 20.628 0 0 1 8.101-5.063 33.549 33.549 0 0 1 11.646-1.899 31.384 31.384 0 0 1 7.722.886 37.718 37.718 0 0 1 6.709 2.278l4.683 2.405c1.025.544 2 1.18 2.911 1.899.542.393.906.985 1.013 1.646a2.655 2.655 0 0 1-.38 2.025l-4.051 6.329a3.673 3.673 0 0 1-1.646 1.519 2.28 2.28 0 0 1-2.025-.127c-6.582-4.177-11.772-6.329-15.57-6.329a10.504 10.504 0 0 0-7.342 2.532 7.719 7.719 0 0 0-2.785 5.57 9.24 9.24 0 0 0 3.165 6.962c2.152 2.025 5.57 3.924 10.38 5.949l4.683 2.025 4.43 2.405c1.502.867 2.94 1.84 4.304 2.911a31.76 31.76 0 0 1 3.671 3.544 21.752 21.752 0 0 1 3.038 4.177 28.58 28.58 0 0 1 1.899 4.937 22.91 22.91 0 0 1-6.203 22.278 25.061 25.061 0 0 1-18.228 6.962 39.267 39.267 0 0 1-9.62-1.139 34.214 34.214 0 0 1-7.722-2.785 35.096 35.096 0 0 1-4.937-3.038 32.092 32.092 0 0 1-3.038-2.532 3.553 3.553 0 0 1-1.388-1.517zm62.659 7.468v-70.38c0-.506 4.051-2.911 4.557-3.418a58.604 58.604 0 0 1 8.228-4.557h.127a2.66 2.66 0 0 1 1.519.633c.416.394.646.946.633 1.519v76.076a2.66 2.66 0 0 1-.633 1.519 1.647 1.647 0 0 1-1.519.633h-10.633a2.66 2.66 0 0 1-1.519-.633 1.767 1.767 0 0 1-.76-1.392zm25.316-38.101a40.624 40.624 0 0 1 3.291-16.076 41.647 41.647 0 0 1 38.228-25.19 40.635 40.635 0 0 1 15.19 2.658 44.16 44.16 0 0 1 12.658 7.975c.47.42.745 1.016.759 1.646a2.662 2.662 0 0 1-.633 1.646l-7.089 7.215a1.645 1.645 0 0 1-1.392.633 2.154 2.154 0 0 1-1.519-.759 27.847 27.847 0 0 0-8.481-5.19 25.95 25.95 0 0 0-23.038 1.772 26.71 26.71 0 0 0-12.658 23.291 26.702 26.702 0 0 0 3.418 13.291 26.204 26.204 0 0 0 22.911 13.418 27.977 27.977 0 0 0 17.975-6.582c.434-.337.97-.516 1.519-.506.508.009.998.187 1.392.506l7.215 7.468c.385.364.612.863.633 1.392a2.405 2.405 0 0 1-.633 1.646 38.734 38.734 0 0 1-27.975 11.013 39.893 39.893 0 0 1-11.013-1.519 50.113 50.113 0 0 1-10-4.051 41.523 41.523 0 0 1-14.81-14.81 42.907 42.907 0 0 1-4.177-9.873 32.466 32.466 0 0 1-1.771-11.014zm97.595 16.456a40.657 40.657 0 0 1-3.165-16.203 42.155 42.155 0 0 1 3.165-16.329 41.502 41.502 0 0 1 8.608-13.291 41.023 41.023 0 0 1 12.911-8.861 39.242 39.242 0 0 1 15.696-3.291 41.007 41.007 0 0 1 14.937 2.785 45.167 45.167 0 0 1 13.164 7.975c.43.448.697 1.028.76 1.646a1.775 1.775 0 0 1-.633 1.646l-7.215 7.468a2.026 2.026 0 0 1-3.038 0 25.317 25.317 0 0 0-17.342-6.582 25.065 25.065 0 0 0-13.038 3.671 26.835 26.835 0 0 0-12.785 22.911 26.328 26.328 0 0 0 12.785 22.658 24.934 24.934 0 0 0 13.038 3.544 36.959 36.959 0 0 0 13.544-2.785v-9.367h-9.114a2.152 2.152 0 0 1-2.152-2.152v-9.367a2.662 2.662 0 0 1 .633-1.646 2.151 2.151 0 0 1 1.519-.633h22.152a2.023 2.023 0 0 1 1.392.633c.366.427.588.958.633 1.519V80.38a1.897 1.897 0 0 1-.886 1.772l-1.392.759-3.797 1.772a42.998 42.998 0 0 1-6.076 2.278 61.96 61.96 0 0 1-7.848 1.772 59.62 59.62 0 0 1-9.367.759 39.11 39.11 0 0 1-15.696-3.165 43.395 43.395 0 0 1-12.911-8.608 40.204 40.204 0 0 1-8.482-12.782zm79.62 21.645V10.38c0-1.188.963-2.152 2.152-2.152h32.911a24.308 24.308 0 0 1 17.722 7.215 23.416 23.416 0 0 1 7.342 17.468 22.66 22.66 0 0 1-4.684 14.051 28.863 28.863 0 0 1-12.405 9.367l15.823 29.114a2.154 2.154 0 0 1 0 2.152 2.024 2.024 0 0 1-2.025 1.139h-12.152a2.026 2.026 0 0 1-1.899-1.013l-15.316-30.38h-12.785v29.114a2.66 2.66 0 0 1-.633 1.519 2.03 2.03 0 0 1-1.519.633h-10.633a2.151 2.151 0 0 1-1.519-.633 3.042 3.042 0 0 1-.38-1.392zm15.064-41.645h18.734a10.888 10.888 0 0 0 7.975-3.418 11.266 11.266 0 0 0 3.418-8.228 10.505 10.505 0 0 0-3.418-7.848 11.262 11.262 0 0 0-7.975-3.291h-18.734v22.785zm50.886 3.671a39.893 39.893 0 0 1 1.519-11.013 43.521 43.521 0 0 1 4.051-10 41.523 41.523 0 0 1 14.81-14.81 42.907 42.907 0 0 1 9.873-4.177 39.893 39.893 0 0 1 11.013-1.519 41.646 41.646 0 0 1 16.203 3.291 39.632 39.632 0 0 1 13.165 8.861 40.502 40.502 0 0 1 8.734 13.291c9.063 20.758-.418 44.934-21.177 53.997a41.147 41.147 0 0 1-16.925 3.472 41.388 41.388 0 0 1-29.367-11.899 41.262 41.262 0 0 1-8.734-13.165 45.164 45.164 0 0 1-3.165-16.329zm15.063 0a25.316 25.316 0 0 0 7.722 18.608 25.318 25.318 0 0 0 18.608 7.722 25.065 25.065 0 0 0 13.165-3.544 26.964 26.964 0 0 0 9.62-9.62 25.314 25.314 0 0 0 3.544-13.165 25.826 25.826 0 0 0-3.544-13.291 27.349 27.349 0 0 0-9.62-9.747 25.314 25.314 0 0 0-13.165-3.544 25.065 25.065 0 0 0-13.165 3.544 27.332 27.332 0 0 0-9.62 9.747 26.188 26.188 0 0 0-3.545 13.29zm76.709 9.62V10.38a2.66 2.66 0 0 1 .633-1.519 2.03 2.03 0 0 1 1.519-.633h10.886c1.188 0 2.152.963 2.152 2.152v47.089a17.217 17.217 0 0 0 4.683 12.405 15.823 15.823 0 0 0 12.025 4.937 16.075 16.075 0 0 0 12.152-4.937 17.214 17.214 0 0 0 4.683-12.405V10.38c0-1.188.964-2.152 2.152-2.152h10.886a2.66 2.66 0 0 1 1.519.633c.417.394.646.946.633 1.519v47.848a31.253 31.253 0 0 1-2.405 12.278 32.92 32.92 0 0 1-6.709 10.127 30.64 30.64 0 0 1-10.253 6.709 33.17 33.17 0 0 1-12.658 2.532 32.154 32.154 0 0 1-16.203-4.177 30.51 30.51 0 0 1-11.519-11.519 31.28 31.28 0 0 1-4.176-15.95zm78.987 28.354V10.38c0-1.188.963-2.152 2.152-2.152h27.089a25.192 25.192 0 0 1 18.228 7.468 24.178 24.178 0 0 1 7.595 17.848 26.079 26.079 0 0 1-3.418 13.038 26.97 26.97 0 0 1-9.367 9.494 24.176 24.176 0 0 1-12.911 3.544h-14.43v26.962a2.66 2.66 0 0 1-.633 1.519 1.898 1.898 0 0 1-1.519.633h-10.633a2.15 2.15 0 0 1-1.519-.633 1.646 1.646 0 0 1-.634-1.519zm14.937-41.012h13.291a11.389 11.389 0 0 0 8.354-3.418 11.898 11.898 0 0 0 3.544-8.608 10.256 10.256 0 0 0-3.544-7.975 11.77 11.77 0 0 0-8.354-3.291h-13.291V45.57z"/></svg>